<mxfile host="app.diagrams.net" modified="2020-08-13T07:27:18.255Z" agent="5.0 (Macintosh; Intel Mac OS X 10_13_6) AppleWebKit/537.36 (KHTML, like Gecko) Chrome/84.0.4147.105 Safari/537.36" etag="rX0g9ZS98cBKhhJf4bPD" version="13.1.5" type="github">
  <diagram id="vx2RxJ6e2pieVY0ymEu-" name="第 1 页">
    <mxGraphModel dx="1612" dy="1183" grid="1" gridSize="10" guides="1" tooltips="1" connect="1" arrows="1" fold="1" page="1" pageScale="1" pageWidth="827" pageHeight="1169" math="0" shadow="0">
      <root>
        <mxCell id="0" />
        <mxCell id="1" parent="0" />
      </root>
    </mxGraphModel>
  </diagram>
</mxfile>
